# xmcd
#
# Track frame offsets:
#	150
#	18700
#	37570
#	56198
#	80104
#	112824
#	136918
#
# Disc length: 2175 seconds
#
# Revision: 1
# Processed by: cddbd v1.5.1PL0 Copyright (c) Steve Scherf et al.
# Submitted via: EasyCDDAExtractor 6.5.0.1
#
DISCID=53087d07
DTITLE=Steve Best - The Way You Want It
DYEAR=1900
DGENRE=
TTITLE0=The Way You Want It(Perfect R And B Radio)
TTITLE1=The Way You Want It(LP Version)
TTITLE2=The Way You Want It(TP2K Radio)
TTITLE3=The Way You Want It(Perfect R And B Mix)
TTITLE4=The Way You Want It(Thunderpuss 2000 Club Mix)
TTITLE5=The Way You Want It(Extended Mix)
TTITLE6=The Way You Want It(Thunderdub 2000)
EXTD=
EXTT0=
EXTT1=
EXTT2=
EXTT3=
EXTT4=
EXTT5=
EXTT6=
PLAYORDER=
